<svg width="32" height="32" viewBox="0 0 32 32" fill="none" xmlns="http://www.w3.org/2000/svg">
<path d="M10.571 28.8526L3.14735 21.429C1.79105 20.0727 1.11292 19.3945 1.0162 18.5664C0.9946 18.3814 0.9946 18.1947 1.0162 18.0099C1.11292 17.1817 1.79105 16.5036 3.14734 15.1473C4.50362 13.791 5.18177 13.1128 6.0099 13.0162C6.19476 12.9946 6.38151 12.9946 6.56637 13.0162C7.3945 13.1128 8.07265 13.791 9.42893 15.1473L10.5288 16.2472L16.2472 10.5288L15.1474 9.42894C13.7911 8.07264 13.1129 7.39451 13.0162 6.56637C12.9946 6.38151 12.9946 6.19476 13.0162 6.0099C13.1129 5.18177 13.7911 4.50362 15.1474 3.14734C16.5037 1.79106 17.1818 1.11291 18.0098 1.01619C18.1948 0.994604 18.3815 0.994604 18.5663 1.01619C19.3945 1.11291 20.0726 1.79106 21.4289 3.14734L28.8525 10.571C30.2088 11.9273 30.887 12.6055 30.9837 13.4335C31.0053 13.6185 31.0053 13.8052 30.9837 13.99C30.887 14.8182 30.2088 15.4963 28.8525 16.8526C27.4962 18.2089 26.8182 18.8871 25.9901 18.9838C25.8052 19.0054 25.6184 19.0054 25.4336 18.9838C24.6055 18.8871 23.9273 18.2089 22.571 16.8526L20.9032 15.1848L15.1847 20.9032L16.8526 22.5711C18.2089 23.9272 18.887 24.6054 18.9838 25.4335C19.0054 25.6185 19.0054 25.8052 18.9838 25.99C18.887 26.8182 18.2089 27.4963 16.8526 28.8526C15.4963 30.2089 14.8181 30.8871 13.9901 30.9838C13.8052 31.0054 13.6184 31.0054 13.4336 30.9838C12.6055 30.8871 11.9273 30.2089 10.571 28.8526Z" fill="#3DADFF"/>
</svg>
